<svg width="64" height="77" viewBox="0 0 64 77" fill="none" xmlns="http://www.w3.org/2000/svg">
<path d="M12.8646 45.9098L14.5289 36.3909H19.5473L19.3096 37.7897H16.0658L15.6328 40.2036H18.6812L18.4434 41.6024H15.395L14.6393 45.9184H12.8731L12.8646 45.9098Z" fill="white"/>
<path d="M20.0058 40.3828C20.4983 37.9604 21.0078 36.1521 23.8355 36.1521C26.6631 36.1521 26.5442 37.9518 26.1961 40.3828L25.9583 41.7389C25.5168 44.2808 24.9988 46.1317 22.0947 46.1317C19.1906 46.1317 19.3265 44.2808 19.7681 41.7389L20.0058 40.3828ZM21.4239 42.626C21.2965 43.4107 21.1352 44.6987 22.3494 44.6987C23.5637 44.6987 23.8524 43.3937 24.0138 42.481L24.4299 40.0416C24.5657 39.2824 24.8969 37.5936 23.5807 37.5936C22.1881 37.5936 22.0098 39.2569 21.8909 39.9904L21.4239 42.6346V42.626Z" fill="white"/>
<path d="M33.0487 42.5151C33.0147 42.6943 32.9638 42.8819 32.9128 43.061C32.5222 44.8011 31.7155 46.1317 29.737 46.1317C26.833 46.1317 26.9688 44.2808 27.4104 41.7389L27.6481 40.3828C28.1407 37.9604 28.6501 36.1521 31.4778 36.1521C33.0572 36.1777 33.8044 36.988 33.6346 38.6171C33.6261 38.856 33.6091 39.1033 33.5497 39.3421H31.809C31.8429 38.7365 32.0977 37.5936 31.2315 37.5936C29.8389 37.5936 29.6606 39.2569 29.5417 39.9904L29.0747 42.6346C28.9473 43.4193 28.786 44.7072 30.0003 44.7072C30.9768 44.7072 31.1381 43.1293 31.274 42.5237H33.0572L33.0487 42.5151Z" fill="white"/>
<path d="M39.7824 36.3823H41.5486L40.3853 43.0183C40.0202 45.1251 39.1625 46.1316 36.8444 46.1316C34.5262 46.1316 33.9997 45.1251 34.3649 43.0183L35.5282 36.3823H37.2944L36.1566 42.8733C35.9952 43.786 35.9018 44.6986 37.1076 44.6986C38.3134 44.6986 38.4747 43.786 38.6361 42.8733L39.7739 36.3823H39.7824Z" fill="white"/>
<path d="M46.3717 39.2825C46.5331 38.4295 46.601 37.5936 45.6245 37.5936C45.0301 37.5936 44.614 37.8324 44.5036 38.4807C44.3762 39.2057 44.7838 39.4872 45.2763 39.8369C45.7943 40.2036 46.7453 40.9201 47.1614 41.3978C47.6539 41.9949 47.7388 42.5663 47.603 43.3937C47.2888 45.1934 45.9302 46.1402 44.2064 46.1402C42.0835 46.1402 41.5231 44.9461 41.8288 43.2487L41.9562 42.5493H43.7224L43.6205 43.1037C43.4167 44.0334 43.5865 44.7072 44.4526 44.7072C45.1999 44.7072 45.616 44.3149 45.7433 43.5899C45.8452 43.0355 45.6584 42.6516 45.2593 42.336C44.4611 41.611 43.3997 41.0907 42.8478 40.1354C42.6355 39.7004 42.5591 39.1801 42.644 38.6769C42.9327 37.0477 43.9941 36.1606 45.8707 36.1606C48.6899 36.1606 48.2313 38.3442 48.0785 39.2825H46.3717Z" fill="white"/>
<path d="M19.7001 53.9362C19.7086 54.8915 19.5897 56.1112 19.4963 57.3224H19.5218C19.5812 57.0921 19.6322 56.8618 19.7001 56.64C19.9124 55.8297 20.1331 55.0109 20.3964 54.2006L22.0182 49.0061H23.8524L20.4303 58.5251H18.3075L18.2565 54.7635C18.2396 53.7571 18.3584 52.742 18.4094 51.727H18.3839C18.0782 52.742 17.8405 53.7571 17.4753 54.7635L16.1846 58.5251H14.0618L13.9259 49.0061H15.7601L15.6497 54.2006C15.6327 55.0109 15.5732 55.8297 15.4883 56.64C15.4713 56.8703 15.4544 57.1006 15.4289 57.3224H15.4544C15.811 56.1027 16.1082 54.883 16.4564 53.9362L18.1716 49.0146H19.6406L19.7256 53.9362H19.7001Z" fill="white"/>
<path d="M22.3494 58.5336L26.281 49.0146H28.6671L29.1511 58.5336H27.2575L27.2065 56.1198H25.1346L24.2515 58.5336H22.3579H22.3494ZM25.6611 54.7209H27.1811V52.017C27.1726 51.5735 27.2065 51.1385 27.232 50.695C27.2575 50.4817 27.266 50.26 27.283 50.0638H27.2575C27.198 50.2685 27.1301 50.4817 27.0792 50.695C26.9518 51.1385 26.8414 51.5735 26.6631 52.017L25.6611 54.7209Z" fill="white"/>
<path d="M30.1276 58.5336L31.7919 49.0146H33.5581L32.1315 57.1433H35.4177L35.18 58.5421H30.1276V58.5336Z" fill="white"/>
<path d="M36.4453 58.5336L38.1096 49.0146H39.8758L38.4492 57.1433H41.7354L41.4977 58.5421H36.4453V58.5336Z" fill="white"/>
<path d="M14.5543 71.1574H12.7881L14.4524 61.6384H17.2716L17.4499 66.0567C17.4754 66.7817 17.4499 67.5153 17.3904 68.2574H17.4159C17.6707 67.3191 17.849 66.6794 18.0867 66.0567L19.802 61.6384H22.6042L20.9399 71.1574H19.1737L19.7086 68.1635C20.0398 66.27 20.4049 64.3764 20.8465 62.4914H20.821L17.4074 71.1659H16.329L15.9894 62.4914H15.9299C15.7176 64.3849 15.4289 66.2785 15.0978 68.1635L14.5628 71.1574H14.5543Z" fill="white"/>
<path d="M21.8824 71.1574L25.814 61.6384H28.2001L28.6841 71.1574H26.7905L26.7396 68.7435H24.6676L23.7845 71.1574H21.8909H21.8824ZM25.1941 67.3447H26.7141V64.6408C26.7056 64.1973 26.7396 63.7623 26.765 63.3187C26.7905 63.1055 26.799 62.8837 26.816 62.6876H26.7905C26.7311 62.8923 26.6631 63.1055 26.6122 63.3187C26.4848 63.7623 26.3744 64.1973 26.1961 64.6408L25.1941 67.3447Z" fill="white"/>
<path d="M32.1231 67.0547L31.4013 71.1574H29.6351L31.2994 61.6384H34.645C36.1735 61.6384 37.2519 62.1758 36.9292 63.9243C36.7509 64.9649 36.3009 66.0567 35.0866 66.2188L35.0696 66.2444C36.0971 66.3809 36.2924 67.0547 36.131 67.9673C36.0716 68.3597 35.5961 70.6968 35.9782 70.9783L35.9527 71.1574H34.0082C33.8978 70.5518 34.144 69.3833 34.2374 68.7435C34.3393 68.1635 34.4922 67.3618 33.9063 67.1826C33.4477 67.0462 32.9297 67.0547 32.4288 67.0547H32.1146H32.1231ZM32.3608 65.6558H33.7534C34.3478 65.6217 34.8658 65.2379 35.0271 64.2826C35.2139 63.2164 34.8148 63.0373 34.144 63.0287H32.8279L32.3608 65.6558Z" fill="white"/>
<path d="M37.3793 71.1574L39.0436 61.6384H40.8098L40.0796 65.8691H40.105C40.5126 65.1185 41.1155 64.2826 41.608 63.5832L42.9836 61.6384H44.9791L41.9222 65.7241L43.4252 71.1574H41.4297L40.4192 67.3959L39.621 68.4279L39.137 71.1574H37.3708H37.3793Z" fill="white"/>
<path d="M44.3593 71.1574L46.0321 61.6384H51.008L50.7703 63.0373H47.5605L47.1444 65.4341H50.0995L49.8447 66.8329H46.8897L46.3717 69.7671H49.5815L49.3437 71.1659H44.3677L44.3593 71.1574Z" fill="white"/>
<path d="M51.7553 61.6384H57.6569L57.4191 63.0373H55.3557L53.9291 71.1659H52.1629L53.5895 63.0373H51.5176L51.7553 61.6384Z" fill="white"/>
<path fill-rule="evenodd" clip-rule="evenodd" d="M64 46.094L62.3781 46.9406L62.03 4.78898L6.3516 34.0445L6.75919 76.1534L5.1628 77V76.9743L5.15431 76.9914L0.407589 74.845L0.416081 74.8279L0.399098 74.8364L0 30.9317L58.8372 0V0.00855175L58.8457 0L63.5924 2.15504L64 46.094Z" fill="white"/>
</svg>
